# xmcd
#
# Track frame offsets: 
#        150
#        21404
#        44394
#        68218
#        90759
#        124775
#        157349
#        179996
#        205080
#        228512
#        242623
#        255172
#        273483
#        293183
#        311729
#
# Disc length: 4536 seconds
#
# Revision: 1
# Processed by: cddbd v1.5.2PL0 Copyright (c) Steve Scherf et al.
# Submitted via: ExactAudioCopy v0.95a5
#
DISCID=d911b60f
DTITLE=Botafogo - En vivo en Hollywood
DYEAR=1999
DGENRE=Blues
TTITLE0=My Baby
TTITLE1=Another Man Done Gone
TTITLE2=I'm The Hoochie Coochie Man
TTITLE3=Little Red Roster
TTITLE4=Blues Para Mi Guitarra
TTITLE5=Todo El Día Me Pregunto
TTITLE6=Despiértate Nena
TTITLE7=I'm Ready
TTITLE8=Imagine
TTITLE9=The Stumble
TTITLE10=Nickle Plated
TTITLE11=Manhole
TTITLE12=Hide Away
TTITLE13=Head's Up
TTITLE14=Funny Bone
EXTD=
EXTT0=
EXTT1=
EXTT2=
EXTT3=
EXTT4=
EXTT5=
EXTT6=
EXTT7=
EXTT8=
EXTT9=
EXTT10=
EXTT11=
EXTT12=
EXTT13=
EXTT14=
PLAYORDER=
